<svg width="115" height="116" viewBox="0 0 115 116" fill="none" xmlns="http://www.w3.org/2000/svg">
<path d="M59.4723 8.51404C72.6858 8.96397 85.0569 14.2022 94.6579 23.2887C95.2396 23.8387 95.8041 24.3845 96.3513 24.926C96.4021 24.9768 96.4309 25.0381 96.4376 25.11C96.589 26.7257 96.7289 28.3333 96.8573 29.9328C97.2272 34.5251 97.381 39.1251 97.3187 43.7328C97.2368 49.7013 96.6546 55.7905 95.3048 61.6225C93.9756 67.3629 91.9166 72.5695 89.1279 77.2423C86.825 81.1006 84.1613 84.6062 81.1368 87.7591C79.4597 89.5071 77.844 91.0721 76.2896 92.454C72.8405 95.5178 69.7394 98.0497 66.9861 100.05C63.8475 102.33 60.719 104.611 57.6006 106.894C57.5885 106.903 57.5739 106.907 57.5589 106.907C57.5439 106.907 57.5293 106.903 57.5173 106.894C54.6672 104.812 51.7994 102.722 48.9138 100.623C45.7427 98.3166 42.6545 95.8383 39.6491 93.1885C37.1977 91.0265 35.0357 88.9264 33.1631 86.888C30.6264 84.1251 28.3556 81.1111 26.3508 77.8461C23.7969 73.685 21.8385 69.144 20.4758 64.2229C18.9937 58.8754 18.2146 53.2907 17.9371 47.7434C17.7301 43.6025 17.7277 39.4438 17.9299 35.2673C18.09 31.9707 18.3401 28.5892 18.6803 25.1229C18.687 25.0558 18.7139 24.9983 18.7608 24.9504C24.0987 19.4975 30.1425 15.3709 36.892 12.5707C44.0594 9.59791 51.5861 8.2457 59.4723 8.51404ZM91.0009 57.4595C91.8246 52.8264 92.2228 48.1129 92.2587 43.4467C92.2587 43.349 92.2918 43.2512 92.2918 43.1463C92.3119 37.8793 92.069 32.6319 91.563 27.4042C91.5584 27.3561 91.5365 27.3111 91.5012 27.2777C84.1541 20.1837 74.8463 15.5377 64.7421 14.0527C60.2648 13.3953 55.6964 13.3627 51.037 13.955C50.0643 14.0786 49.1117 14.2334 48.1793 14.4193C38.8269 16.2832 30.6408 20.5622 23.621 27.2562C23.5798 27.2964 23.5563 27.3453 23.5506 27.4028C23.1749 31.4115 22.9435 35.2947 22.8563 39.0523C22.8198 40.6268 22.827 42.5042 22.8778 44.6844C22.9871 49.4282 23.4394 53.9007 24.2348 58.102C24.713 60.6234 25.345 63.0676 26.1309 65.4347C28.6019 72.881 33.0323 79.6976 38.6386 85.2895C43.4413 90.0792 48.7428 94.3285 54.3217 98.3032C55.3538 99.0382 56.4099 99.8044 57.4899 100.602C57.5321 100.633 57.5748 100.633 57.6179 100.602C59.523 99.2236 61.398 97.8623 63.2428 96.5178C68.4595 92.7142 73.5138 88.452 77.9657 83.747C78.603 83.0733 79.2364 82.3541 79.8661 81.5893C83.0401 77.7354 85.7066 73.5739 87.6156 69.0529C89.1403 65.4419 90.2688 61.5774 91.0009 57.4595Z" fill="white"/>
<path d="M57.5992 26.9443L59.478 22.8891C59.5039 22.8345 59.5192 22.8373 59.524 22.8977C59.548 23.2235 59.5547 23.5853 59.5441 23.983C59.408 29.1849 59.2863 34.2334 59.179 39.1285C59.178 39.1831 59.1617 39.2325 59.1301 39.2766L57.6049 41.4228C57.6 41.43 57.5934 41.436 57.5856 41.4401C57.5778 41.4442 57.5691 41.4463 57.5603 41.4463C57.5514 41.4463 57.5426 41.4442 57.5346 41.4401C57.5266 41.436 57.5197 41.43 57.5144 41.4228L56.0108 39.3183C55.964 39.2527 55.9379 39.1746 55.936 39.094L55.5608 22.9897C55.557 22.8028 55.5944 22.7942 55.6729 22.9638L57.5172 26.9443C57.5207 26.9523 57.5264 26.9591 57.5337 26.9639C57.541 26.9687 57.5495 26.9713 57.5582 26.9713C57.5669 26.9713 57.5755 26.9687 57.5828 26.9639C57.59 26.9591 57.5958 26.9523 57.5992 26.9443Z" fill="white"/>
<path d="M54.9154 38.8496L50.5727 26.2686C50.5646 26.2447 50.5655 26.2186 50.5754 26.1955C50.5852 26.1724 50.6032 26.1539 50.6259 26.1436L54.7343 24.2647C54.8694 24.2034 54.9369 24.247 54.9369 24.3956L54.9714 38.841C54.9714 38.9569 54.9527 38.9598 54.9154 38.8496Z" fill="white"/>
<path d="M64.5524 26.2413L60.2399 38.7375C60.191 38.8803 60.1661 38.876 60.1651 38.7246C60.1441 33.9444 60.1556 29.1249 60.1996 24.2662C60.2006 24.2106 60.226 24.1943 60.2758 24.2173L64.5165 26.1551C64.5548 26.1723 64.5668 26.2011 64.5524 26.2413Z" fill="white"/>
<path d="M67.5654 27.581L61.0204 39.8961C61.0183 39.9004 61.0145 39.9037 61.0099 39.9053C61.0054 39.9069 61.0004 39.9067 60.996 39.9047L60.9816 39.8975C60.9774 39.8956 60.974 39.8922 60.9721 39.888C60.9703 39.8837 60.9701 39.8789 60.9716 39.8745L65.2064 26.5892C65.2072 26.5868 65.2085 26.5846 65.2102 26.5827C65.2119 26.5808 65.2139 26.5793 65.2162 26.5782C65.2185 26.5771 65.221 26.5765 65.2235 26.5764C65.226 26.5763 65.2285 26.5768 65.2309 26.5777L67.5567 27.5537C67.5593 27.5548 67.5615 27.5564 67.5634 27.5584C67.5652 27.5604 67.5666 27.5628 67.5674 27.5654C67.5682 27.568 67.5685 27.5707 67.5681 27.5734C67.5678 27.5761 67.5668 27.5787 67.5654 27.581Z" fill="white"/>
<path d="M47.6186 27.5293L49.8482 26.5921C49.8553 26.5892 49.8629 26.5878 49.8706 26.5881C49.8783 26.5884 49.8859 26.5903 49.8929 26.5936C49.8999 26.597 49.9062 26.6018 49.9114 26.6077C49.9165 26.6136 49.9205 26.6205 49.9229 26.628L54.1463 39.8832C54.1483 39.8893 54.1479 39.896 54.1452 39.9019C54.1425 39.9077 54.1377 39.9124 54.1318 39.9149C54.1258 39.9174 54.1192 39.9176 54.1131 39.9155C54.107 39.9133 54.1019 39.909 54.0989 39.9033L47.5798 27.6357C47.5539 27.5859 47.5669 27.5504 47.6186 27.5293Z" fill="white"/>
<path d="M46.7734 27.9174L53.2594 40.4654C53.3102 40.5641 53.2953 40.5751 53.2148 40.4984C52.819 40.1209 52.3997 39.7035 51.957 39.2464C48.7667 35.9459 45.4466 32.5304 41.9966 28.9999C41.9897 28.9932 41.9848 28.9848 41.9825 28.9755C41.9801 28.9663 41.9804 28.9565 41.9831 28.9472C41.9859 28.9379 41.9912 28.9295 41.9984 28.9229C42.0055 28.9162 42.0143 28.9115 42.0239 28.9093L46.667 27.8671C46.7149 27.8566 46.7504 27.8734 46.7734 27.9174Z" fill="white"/>
<path d="M61.8815 40.4194L68.3445 27.916C68.3665 27.8729 68.401 27.8566 68.448 27.8671L73.0854 28.9064C73.0953 28.9086 73.1044 28.9134 73.1118 28.9203C73.1192 28.9272 73.1246 28.936 73.1274 28.9457C73.1302 28.9554 73.1303 28.9657 73.1277 28.9755C73.1251 28.9853 73.1199 28.9942 73.1127 29.0013L61.9519 40.4711C61.8139 40.612 61.7905 40.5947 61.8815 40.4194Z" fill="white"/>
<path d="M52.1496 40.8621L38.7636 32.5836C38.7575 32.5797 38.7522 32.5745 38.7482 32.5685C38.7441 32.5625 38.7413 32.5557 38.74 32.5486C38.7386 32.5415 38.7387 32.5341 38.7403 32.527C38.7419 32.5199 38.745 32.5133 38.7493 32.5074L41.0277 29.3779C41.0612 29.3319 41.0981 29.3296 41.1384 29.3708L52.1985 40.8018C52.3432 40.9513 52.3269 40.9714 52.1496 40.8621Z" fill="white"/>
<path d="M76.3298 32.598L63.0502 40.8104C62.8154 40.9551 62.7938 40.9283 62.9855 40.7299L73.9809 29.3708C74.0193 29.3305 74.0552 29.3329 74.0887 29.378L76.3456 32.483C76.3811 32.5309 76.3758 32.5692 76.3298 32.598Z" fill="white"/>
<path d="M38.6156 36.0983L37.2485 38.992C37.2431 39.0035 37.2404 39.0163 37.2407 39.0292C37.2409 39.0422 37.2441 39.055 37.2499 39.0667L39.2265 43.0213C39.3156 43.1995 39.2854 43.223 39.1359 43.0917L34.9873 39.4448C34.9766 39.4349 34.9694 39.4217 34.9668 39.4072C34.9642 39.3927 34.9664 39.3776 34.9729 39.3643L37.9974 33.5668C38.0262 33.5103 38.0679 33.4978 38.1225 33.5295C41.7076 35.5717 45.2932 37.6124 48.8793 39.6518C48.8937 39.6604 48.8975 39.6724 48.8908 39.6877V39.6892C48.8841 39.7026 48.8736 39.7069 48.8592 39.7021C45.5453 38.4994 42.1791 37.2785 38.7608 36.0393C38.6946 36.0154 38.6462 36.035 38.6156 36.0983Z" fill="white"/>
<path d="M76.3859 36.025C73.0125 37.2526 69.6311 38.4793 66.2414 39.705C66.229 39.7098 66.2199 39.7064 66.2141 39.6949V39.6935C66.2065 39.6772 66.2103 39.6642 66.2256 39.6546C69.8347 37.6048 73.4385 35.5544 77.0371 33.5036C77.0419 33.5008 77.0473 33.4991 77.0529 33.4985C77.0585 33.4979 77.0641 33.4984 77.0695 33.5C77.0749 33.5016 77.0798 33.5043 77.0842 33.5079C77.0885 33.5114 77.092 33.5159 77.0946 33.5208L80.1334 39.347C80.1433 39.365 80.1467 39.3859 80.1431 39.4063C80.1394 39.4267 80.1289 39.4453 80.1133 39.4591L75.9633 43.1061C75.8368 43.2173 75.8114 43.1976 75.8871 43.0471L77.8593 39.0998C77.8794 39.0614 77.8799 39.0226 77.8608 38.9833L76.4879 36.0666C76.4659 36.0226 76.4319 36.0087 76.3859 36.025Z" fill="white"/>
<path d="M46.989 39.9895C46.9938 39.9867 46.9976 39.9876 47.0005 39.9924L47.0235 40.0283C47.0283 40.037 47.0269 40.0442 47.0192 40.0499L29.0447 52.6855C28.9192 52.7747 28.8966 52.7536 28.9771 52.6223C29.7486 51.3707 30.5071 50.134 31.2527 48.9121C31.3965 48.6778 31.615 48.5714 31.845 48.4435C36.9069 45.6471 41.9549 42.8291 46.989 39.9895Z" fill="white"/>
<path d="M68.9051 40.4424C73.8674 43.2158 78.7855 45.9586 83.6596 48.6706C83.7114 48.6989 83.7545 48.7401 83.7847 48.79L86.1379 52.6223C86.2184 52.7536 86.1954 52.7752 86.0689 52.687C80.1042 48.4914 74.1127 44.2786 68.0944 40.0485C68.0838 40.0418 68.0819 40.0332 68.0886 40.0226V40.0212C68.0963 40.0097 68.1059 40.0073 68.1174 40.014C68.379 40.152 68.6416 40.2948 68.9051 40.4424Z" fill="white"/>
<path d="M27.9321 54.504C34.8426 49.7421 41.6966 45.0122 48.4941 40.3145C48.5113 40.303 48.5262 40.3053 48.5386 40.3216H48.5401C48.5487 40.3341 48.5477 40.3451 48.5372 40.3547C42.3128 46.0577 36.0908 51.7574 29.8713 57.4538C29.8671 57.4576 29.8622 57.4605 29.8568 57.4623C29.8514 57.464 29.8457 57.4646 29.8401 57.4639C29.8345 57.4632 29.8291 57.4613 29.8243 57.4583C29.8195 57.4553 29.8154 57.4513 29.8123 57.4466L27.9062 54.642C27.8688 54.5874 27.8774 54.5414 27.9321 54.504Z" fill="white"/>
<path d="M87.2189 54.6248L85.3415 57.3934C85.2993 57.4557 85.251 57.4614 85.1963 57.4106C78.9854 51.7191 72.7864 46.0405 66.5994 40.3748C66.5879 40.3643 66.5874 40.3523 66.598 40.3389V40.3374C66.6085 40.324 66.621 40.3226 66.6353 40.3331C73.4922 45.0635 80.3467 49.7904 87.1988 54.5141C87.2428 54.5438 87.2496 54.5807 87.2189 54.6248Z" fill="white"/>
<path d="M32.4803 58.8151C33.9264 61.5233 35.3659 64.2287 36.7986 66.9312C36.8043 66.9427 36.8019 66.9518 36.7914 66.9585L36.7899 66.9599C36.7736 66.9705 36.7593 66.9676 36.7468 66.9513C34.6059 64.0303 32.4549 61.1007 30.2939 58.1624C30.28 58.1441 30.2736 58.1212 30.2757 58.0981C30.2778 58.075 30.2884 58.0534 30.3054 58.0374C36.8029 52.1973 43.3009 46.3548 49.7993 40.5099C49.8118 40.4994 49.8238 40.4999 49.8353 40.5114V40.5128C49.8468 40.5243 49.8468 40.5358 49.8353 40.5473C44.0527 46.5915 38.2744 52.6295 32.5004 58.6613C32.4564 58.7073 32.4496 58.7585 32.4803 58.8151Z" fill="white"/>
<path d="M82.639 58.6885C76.8631 52.6501 71.0767 46.604 65.2797 40.5502C65.2682 40.5387 65.2682 40.5272 65.2797 40.5157L65.2812 40.5142C65.2927 40.5018 65.3047 40.5013 65.3171 40.5128C71.8213 46.3596 78.315 52.1982 84.7981 58.0287C84.8186 58.0474 84.8315 58.0728 84.8344 58.1001C84.8374 58.1274 84.8301 58.1548 84.8139 58.1768L78.361 66.9542C78.3524 66.9647 78.3428 66.9666 78.3322 66.9599L78.2977 66.9384C78.2949 66.9364 78.2944 66.934 78.2963 66.9312C79.752 64.2373 81.2039 61.5204 82.6519 58.7805C82.6595 58.7658 82.6624 58.749 82.6601 58.7325C82.6578 58.716 82.6504 58.7007 82.639 58.6885Z" fill="white"/>
<path d="M34.5863 43.6193L35.9159 41.3495C35.9192 41.3438 35.9235 41.3389 35.9288 41.335C35.934 41.3311 35.9399 41.3284 35.9463 41.3269C35.9526 41.3254 35.9592 41.3252 35.9656 41.3264C35.972 41.3276 35.9781 41.33 35.9835 41.3337L38.3223 42.9566C38.3302 42.9619 38.3364 42.9694 38.3399 42.9783C38.3435 42.9871 38.3443 42.9968 38.3423 43.0061C38.3403 43.0154 38.3355 43.0239 38.3286 43.0304C38.3217 43.037 38.313 43.0413 38.3036 43.0428L34.6351 43.6912C34.6261 43.6928 34.6167 43.6919 34.6082 43.6883C34.5997 43.6848 34.5924 43.6788 34.5872 43.6712C34.582 43.6636 34.5792 43.6546 34.579 43.6454C34.5788 43.6362 34.5813 43.6271 34.5863 43.6193Z" fill="white"/>
<path d="M76.8044 42.9537L79.1246 41.3336C79.1302 41.3297 79.1367 41.327 79.1434 41.3256C79.1502 41.3243 79.1572 41.3244 79.1639 41.3259C79.1707 41.3274 79.177 41.3302 79.1826 41.3343C79.1882 41.3383 79.1929 41.3435 79.1964 41.3494L80.5319 43.6178C80.5366 43.626 80.5389 43.6355 80.5385 43.645C80.5381 43.6545 80.5351 43.6637 80.5296 43.6715C80.5242 43.6794 80.5167 43.6855 80.5079 43.6892C80.4992 43.6929 80.4895 43.6941 80.4801 43.6925L76.8246 43.0442C76.8148 43.0425 76.8058 43.0379 76.7987 43.031C76.7915 43.0241 76.7865 43.0153 76.7844 43.0056C76.7822 42.996 76.783 42.9859 76.7866 42.9766C76.7901 42.9674 76.7963 42.9594 76.8044 42.9537Z" fill="white"/>
<path d="M32.3998 47.0534L33.8977 44.6169C33.9274 44.569 33.9696 44.5393 34.0242 44.5278L39.3056 43.3907C39.503 43.3476 39.5126 43.3734 39.3343 43.4683L32.4544 47.1124C32.3653 47.1593 32.3471 47.1397 32.3998 47.0534Z" fill="white"/>
<path d="M82.6462 47.1052L75.8281 43.4913C75.6183 43.3801 75.6293 43.3499 75.8612 43.4007L81.1268 44.5349C81.1572 44.5423 81.1836 44.5614 81.2001 44.5881L82.7095 47.039C82.7698 47.1377 82.7487 47.1598 82.6462 47.1052Z" fill="white"/>
<path d="M47.3268 50.0607L45.6622 47.1397C45.6579 47.132 45.6559 47.1233 45.6565 47.1146C45.657 47.1058 45.66 47.0974 45.6651 47.0903C45.6702 47.0832 45.6773 47.0777 45.6854 47.0745C45.6936 47.0713 45.7025 47.0705 45.7111 47.0721L50.9306 48.0496C50.9408 48.0518 50.9499 48.0574 50.9565 48.0654L53.9824 51.6347C53.9869 51.64 53.9902 51.6463 53.9919 51.653C53.9937 51.6597 53.9939 51.6667 53.9925 51.6736L53.3111 55.0229C53.3088 55.0329 53.3031 55.0417 53.2952 55.0481C53.2872 55.0545 53.2773 55.0581 53.2671 55.0583C53.2569 55.0584 53.2469 55.0552 53.2388 55.049C53.2306 55.0429 53.2247 55.0342 53.222 55.0244L52.2833 50.9663C52.2814 50.9573 52.2768 50.949 52.2702 50.9426C52.2635 50.9362 52.2551 50.9319 52.2459 50.9304L47.3584 50.0837C47.3518 50.0824 47.3455 50.0797 47.3401 50.0757C47.3346 50.0717 47.3301 50.0666 47.3268 50.0607Z" fill="white"/>
<path d="M62.8274 51.0166C62.5284 52.2807 62.237 53.5179 61.9534 54.7282C61.9294 54.8298 61.9184 54.9333 61.9203 55.0387C61.9213 55.0953 61.9011 55.1039 61.8599 55.0646C61.8245 55.032 61.802 54.9918 61.7924 54.9439C61.571 53.859 61.3501 52.7886 61.1297 51.7325C61.1191 51.6836 61.1302 51.6395 61.1628 51.6002L64.1269 48.1028C64.1566 48.0683 64.193 48.0472 64.2361 48.0396L69.4111 47.0721C69.419 47.0705 69.4272 47.0711 69.4347 47.074C69.4423 47.077 69.4488 47.082 69.4535 47.0885C69.4582 47.0951 69.4609 47.1028 69.4613 47.1109C69.4617 47.119 69.4598 47.127 69.4557 47.1339L67.8212 50.0061C67.7935 50.0559 67.7518 50.0856 67.6962 50.0952L62.9309 50.9189C62.8753 50.9284 62.8408 50.961 62.8274 51.0166Z" fill="white"/>
<path d="M71.9455 53.5437L71.6953 48.1316C71.6944 48.0971 71.7078 48.0899 71.7356 48.11C71.748 48.1186 71.7567 48.1301 71.7615 48.1445C72.4294 50.3669 73.0926 52.5456 73.7509 54.6808C73.7634 54.723 73.7553 54.7604 73.7265 54.7929L66.4628 63.2684C66.4567 63.276 66.4487 63.2818 66.4396 63.2852C66.4305 63.2887 66.4206 63.2896 66.4109 63.288C66.4012 63.2864 66.392 63.2823 66.3842 63.2761C66.3764 63.2699 66.3703 63.2618 66.3665 63.2526L65.4408 60.9382C65.4226 60.8922 65.4302 60.8501 65.4638 60.8117L71.898 53.676C71.9325 53.6386 71.9483 53.5945 71.9455 53.5437Z" fill="white"/>
<path d="M43.2357 53.6961L49.6613 60.8233C49.69 60.8558 49.6944 60.8913 49.6742 60.9296L48.3877 63.3763C48.3551 63.4376 48.3168 63.4409 48.2727 63.3863L41.4014 54.8131C41.3669 54.7699 41.3578 54.722 41.3741 54.6693L43.2831 48.3961C43.3809 48.0731 43.4221 48.0803 43.4067 48.4176L43.1724 53.5193C43.1695 53.5874 43.1906 53.6463 43.2357 53.6961Z" fill="white"/>
<path d="M35.4344 60.448C36.6083 63.5597 37.7847 66.6762 38.9634 69.7975C38.9682 69.811 38.9639 69.8205 38.9505 69.8263C38.9342 69.834 38.9222 69.8296 38.9146 69.8133C37.1896 66.2685 35.4406 62.6833 33.6677 59.058C33.6476 59.0158 33.6538 58.9775 33.6864 58.943L41.3827 50.8283C41.4594 50.7478 41.4805 50.7602 41.446 50.8657C41.0186 52.1776 40.6007 53.4853 40.1925 54.7886C40.1225 55.009 40.0085 55.2083 39.8504 55.3866C38.3765 57.0407 36.9107 58.6943 35.4531 60.3474C35.4272 60.3771 35.421 60.4107 35.4344 60.448Z" fill="white"/>
<path d="M79.6389 60.3201C78.1669 58.6526 76.7002 56.9966 75.2388 55.3521C75.1036 55.1997 75.0025 55.0186 74.9354 54.8087C74.5023 53.4527 74.0811 52.1388 73.6719 50.8671C73.6374 50.7617 73.6585 50.7492 73.7351 50.8297L81.397 58.9071C81.4497 58.9636 81.4593 59.0269 81.4258 59.0968C79.902 62.2229 78.3754 65.3581 76.8459 68.5024C76.6312 68.9461 76.4415 69.3203 76.2766 69.6251C76.1463 69.8675 76.13 69.8598 76.2278 69.6021L79.6691 60.4797C79.6912 60.4203 79.6811 60.3671 79.6389 60.3201Z" fill="white"/>
<path d="M38.9476 63.2325C38.9198 63.2651 38.9107 63.3024 38.9203 63.3446C39.6544 66.3682 40.3741 69.3668 41.0794 72.3405C41.0823 72.353 41.078 72.3611 41.0665 72.3649H41.0651C41.0488 72.3697 41.0373 72.364 41.0306 72.3477C39.4896 68.4616 37.9533 64.6005 36.4219 60.7643C36.3884 60.68 36.4018 60.6043 36.4622 60.5372L40.6582 55.9228C40.7014 55.8749 40.7421 55.8768 40.7804 55.9286L42.8634 58.7331C42.8723 58.7454 42.8768 58.7604 42.876 58.7756C42.8752 58.7908 42.8693 58.8052 42.8591 58.8165L38.9476 63.2325Z" fill="white"/>
<path d="M72.2272 58.7633L74.3805 55.8725C74.382 55.8703 74.384 55.8685 74.3863 55.8673C74.3886 55.866 74.3912 55.8652 74.3938 55.8651C74.3965 55.8649 74.3991 55.8654 74.4016 55.8664C74.404 55.8675 74.4061 55.8691 74.4079 55.8711L78.7362 60.6249C78.7384 60.6274 78.7399 60.6305 78.7404 60.6338C78.7409 60.6371 78.7404 60.6405 78.739 60.6436L74.0844 72.3376C74.0828 72.3418 74.0797 72.3451 74.0757 72.347C74.0716 72.3489 74.0671 72.3491 74.0629 72.3477L74.0485 72.3434C74.0447 72.3418 74.0416 72.3389 74.0397 72.3352C74.0379 72.3315 74.0374 72.3273 74.0384 72.3233L76.2076 63.2843C76.2083 63.2815 76.2082 63.2786 76.2075 63.2758C76.2067 63.2731 76.2053 63.2705 76.2033 63.2685L72.2272 58.7849C72.2247 58.7818 72.2234 58.778 72.2234 58.7741C72.2234 58.7702 72.2247 58.7664 72.2272 58.7633Z" fill="white"/>
<path d="M57.5101 65.0437L56.0136 68.3974C56.0003 68.4273 55.9801 68.4538 55.9547 68.4747C55.9292 68.4957 55.8992 68.5105 55.867 68.5182L52.3969 69.3433C52.3471 69.3558 52.3106 69.3385 52.2876 69.2915L51.3576 67.4012C51.3355 67.3543 51.3499 67.3265 51.4007 67.3179L54.487 66.7587C54.5675 66.7443 54.6413 66.7146 54.7084 66.6695L57.4209 64.8597C57.426 64.8564 57.4302 64.8521 57.4335 64.8471C57.4368 64.8421 57.4391 64.8365 57.4402 64.8306C57.4412 64.8247 57.4411 64.8186 57.4398 64.8127C57.4385 64.8069 57.436 64.8013 57.4324 64.7965L55.7592 62.5367C55.7055 62.4649 55.6375 62.4117 55.5551 62.3772L53.3686 61.4629C53.315 61.4399 53.2838 61.3997 53.2752 61.3422L52.9604 59.2995C52.9508 59.2362 52.9776 59.2084 53.0409 59.2161L56.4334 59.6215C56.4909 59.6282 56.5364 59.655 56.5699 59.702L57.5086 61.0288C57.5144 61.0368 57.5219 61.0433 57.5307 61.0478C57.5394 61.0523 57.5491 61.0547 57.5589 61.0547C57.5688 61.0547 57.5785 61.0523 57.5872 61.0478C57.596 61.0433 57.6035 61.0368 57.6093 61.0288L58.5465 59.7005C58.5781 59.6555 58.6213 59.6296 58.6759 59.6229L62.0986 59.2132C62.1071 59.212 62.1158 59.2128 62.124 59.2155C62.1322 59.2183 62.1396 59.2229 62.1456 59.2291C62.1516 59.2353 62.1561 59.2428 62.1587 59.251C62.1613 59.2592 62.1618 59.268 62.1604 59.2765L61.8427 61.3407C61.8331 61.3992 61.801 61.4399 61.7464 61.4629L59.5125 62.3973C59.4636 62.4174 59.4239 62.4486 59.3932 62.4907L57.6854 64.7936C57.682 64.7984 57.6795 64.8038 57.6782 64.8095C57.6769 64.8153 57.6767 64.8212 57.6778 64.827C57.6789 64.8328 57.6812 64.8383 57.6844 64.8432C57.6877 64.8481 57.692 64.8522 57.6969 64.8554C58.5067 65.3911 59.3654 65.9656 60.2729 66.579C60.4359 66.6892 60.6146 66.7615 60.8091 66.796C61.7818 66.9676 62.7464 67.1396 63.7028 67.3121C63.7603 67.3226 63.7761 67.3538 63.7503 67.4055L62.8274 69.3045C62.8082 69.3438 62.7776 69.3586 62.7354 69.349L59.2667 68.5225C59.2295 68.5135 59.1949 68.4962 59.1655 68.4717C59.1361 68.4473 59.1127 68.4165 59.0971 68.3816L57.6049 65.0437C57.5733 64.9728 57.5417 64.9728 57.5101 65.0437Z" fill="white"/>
<path d="M41.6587 66.2412C41.975 68.6533 42.2922 71.0649 42.6104 73.4761C42.6123 73.4895 42.6065 73.4977 42.5931 73.5006H42.5917C42.5783 73.5034 42.5696 73.4982 42.5658 73.4847C41.6918 70.2417 40.8207 67.0035 39.9524 63.7701C39.939 63.7184 39.9491 63.6709 39.9826 63.6278L43.2587 59.5352C43.3018 59.4806 43.3469 59.4792 43.3938 59.5309L45.2798 61.6024C45.2929 61.6168 45.3004 61.6354 45.3009 61.6546C45.3015 61.6739 45.295 61.6927 45.2827 61.7073L41.7062 66.0759C41.6659 66.1238 41.6501 66.1789 41.6587 66.2412Z" fill="white"/>
<path d="M73.4361 66.1061L69.8381 61.7145C69.8055 61.6743 69.8064 61.635 69.8409 61.5967L71.7485 59.5022C71.7538 59.4964 71.7603 59.4918 71.7675 59.4886C71.7748 59.4855 71.7825 59.4839 71.7903 59.4841C71.7981 59.4842 71.8057 59.486 71.8126 59.4894C71.8196 59.4928 71.8256 59.4977 71.8304 59.5037L75.1353 63.6307C75.1509 63.6503 75.1617 63.6734 75.1669 63.698C75.1722 63.7227 75.1717 63.7484 75.1654 63.773C74.3125 66.9394 73.4457 70.1613 72.565 73.4388C72.5602 73.457 72.5487 73.4642 72.5305 73.4603H72.5291C72.5157 73.4575 72.5099 73.4493 72.5118 73.4359C72.83 71.0228 73.1472 68.6117 73.4634 66.2024C73.4657 66.1852 73.4645 66.1677 73.4598 66.1512C73.4551 66.1346 73.447 66.1192 73.4361 66.1061Z" fill="white"/>
<path d="M43.9688 68.2781C44.149 70.5906 44.3282 72.8599 44.5064 75.0861C44.5256 75.3209 44.5275 75.5705 44.5122 75.835C44.5074 75.9309 44.4921 75.9323 44.4662 75.8394C44.4317 75.7157 44.4346 75.5677 44.4029 75.4383C43.7177 72.5671 43.0335 69.6964 42.3502 66.8262C42.3387 66.7802 42.3478 66.739 42.3775 66.7026L45.8031 62.4749C45.8376 62.4328 45.8725 62.4323 45.908 62.4735L46.9746 63.714C46.9875 63.7294 46.995 63.7485 46.996 63.7684C46.9971 63.7884 46.9916 63.8082 46.9804 63.8247L44.0119 68.1185C43.9794 68.1665 43.965 68.2196 43.9688 68.2781Z" fill="white"/>
<path d="M71.1117 68.13L68.1504 63.8449C68.1159 63.7941 68.1183 63.7457 68.1576 63.6997L69.2156 62.4649C69.2211 62.4583 69.228 62.4531 69.2358 62.4496C69.2435 62.446 69.252 62.4443 69.2605 62.4444C69.2691 62.4445 69.2775 62.4466 69.2851 62.4504C69.2928 62.4541 69.2995 62.4596 69.3048 62.4663L72.7504 66.717C72.7612 66.7299 72.7687 66.7452 72.7724 66.7617C72.7762 66.7782 72.776 66.7954 72.772 66.8119C72.0437 69.8565 71.3163 72.9064 70.5899 75.9615C70.586 75.9769 70.5769 75.9831 70.5626 75.9802H70.5611C70.5496 75.9783 70.5444 75.9721 70.5453 75.9615C70.7437 73.3884 70.9454 70.8263 71.1505 68.2752C71.1543 68.2225 71.1414 68.1741 71.1117 68.13Z" fill="white"/>
<path d="M48.4667 69.7228L51.4208 72.4167C51.6268 72.6045 51.6048 72.6376 51.3547 72.5159L44.7594 69.3117C44.7509 69.3076 44.7432 69.3018 44.7371 69.2946C44.7309 69.2874 44.7263 69.279 44.7236 69.2699C44.7209 69.2609 44.7201 69.2513 44.7213 69.2419C44.7226 69.2325 44.7257 69.2235 44.7307 69.2154L47.5927 64.4673C47.6263 64.4117 47.6622 64.4098 47.7006 64.4616L48.829 65.981C48.8606 66.0232 48.8731 66.0701 48.8664 66.1219L48.4064 69.5575C48.3977 69.6236 48.4179 69.6787 48.4667 69.7228Z" fill="white"/>
<path d="M66.6382 69.7315C66.6648 69.7076 66.6851 69.6775 66.6974 69.6439C66.7097 69.6103 66.7136 69.5743 66.7086 69.5388L66.2486 66.119C66.2419 66.0702 66.2529 66.0265 66.2817 65.9882L67.4116 64.4645C67.4528 64.4089 67.4911 64.4103 67.5266 64.4688L70.3814 69.2111C70.3867 69.2198 70.39 69.2294 70.3914 69.2395C70.3927 69.2495 70.3919 69.2597 70.389 69.2695C70.3862 69.2792 70.3814 69.2882 70.3749 69.296C70.3684 69.3037 70.3603 69.3101 70.3513 69.3146L63.6611 72.5648C63.4781 72.6539 63.4618 72.6299 63.6123 72.4929L66.6382 69.7315Z" fill="white"/>
<path d="M53.9652 71.7023C53.9786 71.6975 53.9915 71.6917 54.004 71.685C54.0212 71.6754 54.0394 71.6702 54.0586 71.6692C54.8809 71.6395 55.6715 71.6021 56.4305 71.5571C57.9974 71.4651 59.5858 71.6117 61.1742 71.6793C61.2202 71.6812 61.2567 71.6635 61.2835 71.6261L62.593 69.8177C62.6735 69.7065 62.7071 69.7195 62.6937 69.8565L62.3587 73.2691C62.3566 73.291 62.3487 73.3121 62.3358 73.3302C62.323 73.3483 62.3056 73.3629 62.2854 73.3726L57.6279 75.539C57.581 75.561 57.534 75.561 57.4871 75.539L52.8296 73.3712C52.7874 73.3511 52.7644 73.3185 52.7605 73.2735L52.4141 69.7789C52.4055 69.6898 52.4275 69.6816 52.4802 69.7545L53.8617 71.6678C53.8729 71.6837 53.889 71.6956 53.9076 71.7018C53.9261 71.708 53.9463 71.7081 53.9652 71.7023Z" fill="white"/>
<path d="M45.1217 74.4565L44.8126 70.5436C44.8117 70.5336 44.8135 70.5235 44.8179 70.5144C44.8222 70.5053 44.829 70.4976 44.8373 70.492C44.8457 70.4864 44.8555 70.4831 44.8655 70.4826C44.8756 70.4821 44.8856 70.4843 44.8945 70.489L47.9435 71.9969C47.9541 72.0023 47.9628 72.0109 47.9682 72.0215C47.9736 72.0321 47.9755 72.0441 47.9737 72.0559L47.344 76.2706C47.3426 76.2805 47.3385 76.2899 47.3322 76.2977C47.3259 76.3056 47.3176 76.3115 47.3082 76.3151C47.2988 76.3186 47.2887 76.3195 47.2788 76.3178C47.2689 76.316 47.2597 76.3117 47.252 76.3051L45.1404 74.4939C45.1295 74.4843 45.1228 74.4709 45.1217 74.4565Z" fill="white"/>
<path d="M67.7738 76.2835L67.1413 72.0429C67.1401 72.0333 67.1419 72.0235 67.1465 72.015C67.1512 72.0065 67.1584 71.9996 67.1672 71.9955L70.2377 70.4875C70.2449 70.484 70.253 70.4824 70.2611 70.483C70.2691 70.4835 70.2769 70.4862 70.2836 70.4907C70.2903 70.4952 70.2957 70.5014 70.2993 70.5087C70.3028 70.516 70.3044 70.524 70.3038 70.5321L69.9933 74.468C69.9929 74.474 69.9913 74.4799 69.9886 74.4854C69.9858 74.4908 69.9821 74.4956 69.9775 74.4996L67.8486 76.3123C67.8423 76.3175 67.8347 76.3209 67.8267 76.3222C67.8186 76.3235 67.8104 76.3226 67.8028 76.3197C67.7952 76.3168 67.7885 76.3119 67.7834 76.3055C67.7783 76.2992 67.775 76.2916 67.7738 76.2835Z" fill="white"/>
<path d="M47.8386 76.7723L48.622 72.3937C48.6232 72.386 48.6262 72.3788 48.6307 72.3726C48.6353 72.3663 48.6412 72.3613 48.6481 72.3578C48.6549 72.3543 48.6625 72.3524 48.6703 72.3524C48.678 72.3524 48.6856 72.3542 48.6925 72.3577L51.175 73.5997C51.1848 73.6046 51.1927 73.6127 51.1974 73.6226C51.2021 73.6325 51.2033 73.6437 51.2009 73.6544L50.0926 78.6353C50.0906 78.6434 50.0866 78.6509 50.081 78.657C50.0753 78.6631 50.0682 78.6677 50.0603 78.6703C50.0523 78.6729 50.0439 78.6734 50.0357 78.6718C50.0275 78.6702 50.0199 78.6665 50.0135 78.6612L47.8558 76.8183C47.8491 76.8128 47.844 76.8057 47.841 76.7976C47.838 76.7895 47.8371 76.7808 47.8386 76.7723Z" fill="white"/>
<path d="M65.0224 78.6224L63.9127 73.6515C63.9098 73.6391 63.9112 73.6261 63.9167 73.6146C63.9222 73.6031 63.9314 73.5938 63.9429 73.5882L66.4183 72.3707C66.426 72.367 66.4345 72.3652 66.4431 72.3653C66.4516 72.3654 66.46 72.3675 66.4677 72.3714C66.4753 72.3753 66.482 72.3809 66.4871 72.3877C66.4922 72.3946 66.4957 72.4025 66.4973 72.4109L67.2765 76.7709C67.2783 76.7806 67.2776 76.7906 67.2743 76.8C67.271 76.8093 67.2653 76.8176 67.2578 76.8241L65.113 78.6526C65.1057 78.6587 65.0969 78.6629 65.0875 78.6646C65.0781 78.6664 65.0684 78.6658 65.0593 78.6628C65.0502 78.6597 65.0421 78.6544 65.0356 78.6474C65.0292 78.6403 65.0246 78.6317 65.0224 78.6224Z" fill="white"/>
<path d="M50.7236 79.2362L51.9671 74.0482C51.9687 74.0412 51.9719 74.0347 51.9764 74.0291C51.9809 74.0235 51.9866 74.0191 51.9931 74.016C51.9997 74.013 52.0068 74.0114 52.014 74.0115C52.0211 74.0116 52.0282 74.0134 52.0346 74.0166L55.1626 75.5619C55.1723 75.5668 55.1801 75.575 55.1845 75.5849C55.189 75.5949 55.1899 75.606 55.1871 75.6166L53.5756 81.6167C53.5735 81.6245 53.5695 81.6317 53.5638 81.6375C53.5581 81.6434 53.551 81.6476 53.5433 81.6499C53.5355 81.6523 53.5272 81.6525 53.5193 81.6507C53.5114 81.6489 53.504 81.6451 53.498 81.6397L50.738 79.2836C50.7315 79.2778 50.7267 79.2703 50.7241 79.2619C50.7216 79.2536 50.7214 79.2446 50.7236 79.2362Z" fill="white"/>
<path d="M61.5408 81.6182L59.9308 75.6209C59.928 75.6104 59.9289 75.5992 59.9333 75.5893C59.9378 75.5793 59.9455 75.5712 59.9553 75.5663L63.0804 74.0123C63.0868 74.0091 63.0939 74.0074 63.101 74.0073C63.1082 74.0072 63.1153 74.0087 63.1218 74.0117C63.1284 74.0148 63.1341 74.0193 63.1386 74.0249C63.1431 74.0304 63.1463 74.037 63.1479 74.044L64.3928 79.2333C64.395 79.2418 64.3949 79.2507 64.3923 79.2591C64.3898 79.2675 64.385 79.275 64.3784 79.2808L61.6184 81.6426C61.6123 81.648 61.6049 81.6518 61.5969 81.6535C61.5888 81.6552 61.5805 81.6548 61.5727 81.6524C61.5649 81.6499 61.5578 81.6455 61.5523 81.6395C61.5467 81.6335 61.5427 81.6261 61.5408 81.6182Z" fill="white"/>
<path d="M57.5848 76.7393L59.4622 75.7991C59.4687 75.7959 59.4759 75.7942 59.4831 75.7942C59.4904 75.7942 59.4976 75.7958 59.5041 75.799C59.5107 75.8022 59.5164 75.8069 59.5208 75.8126C59.5252 75.8184 59.5283 75.8251 59.5298 75.8322L60.8954 82.2291C60.8971 82.2374 60.8966 82.2461 60.8938 82.2542C60.891 82.2623 60.8861 82.2695 60.8796 82.2751L57.5877 85.0868C57.5792 85.0938 57.5685 85.0977 57.5575 85.0977C57.5465 85.0977 57.5358 85.0938 57.5273 85.0868L54.2383 82.2722C54.2318 82.2667 54.2269 82.2595 54.2241 82.2514C54.2213 82.2433 54.2207 82.2346 54.2225 82.2262L55.5838 75.8379C55.5854 75.8309 55.5886 75.8244 55.5932 75.8188C55.5977 75.8132 55.6034 75.8088 55.6099 75.8057C55.6164 75.8027 55.6235 75.8011 55.6307 75.8012C55.6379 75.8013 55.645 75.8031 55.6514 75.8063L57.5417 76.7393C57.5484 76.7427 57.5558 76.7444 57.5633 76.7444C57.5708 76.7444 57.5781 76.7427 57.5848 76.7393Z" fill="white"/>
</svg>
